<svg width="32" height="32" viewBox="0 0 32 32" fill="none" xmlns="http://www.w3.org/2000/svg">
<path d="M4.79028 12.2297C5.48685 12.2297 5.86171 11.8411 5.86171 11.1314V7.9714C5.86171 6.57826 6.61142 5.86855 7.95085 5.86855H11.192C11.8886 5.86855 12.2766 5.47998 12.2766 4.7834C12.2766 4.10055 11.888 3.71198 11.192 3.71198H7.91085C5.12514 3.71198 3.70514 5.0914 3.70514 7.85026V11.132C3.70514 11.8417 4.09371 12.2297 4.79028 12.2297ZM27.2097 12.2297C27.9194 12.2297 28.2949 11.8411 28.2949 11.1314V7.85026C28.2949 5.0914 26.9017 3.71198 24.0891 3.71198H20.8211C20.1114 3.71198 19.7234 4.10055 19.7234 4.7834C19.7234 5.47998 20.112 5.86855 20.8211 5.86855H24.0623C25.3749 5.86855 26.1383 6.57826 26.1383 7.9714V11.1314C26.1383 11.8417 26.5269 12.2297 27.2097 12.2297ZM15.424 14.8411V10.1674C15.424 9.84626 15.1697 9.57826 14.8349 9.57826H10.1743C9.83942 9.57826 9.58457 9.84569 9.58457 10.1674V14.8417C9.58457 15.1628 9.83942 15.4177 10.1743 15.4177H14.8349C15.1697 15.4177 15.424 15.1623 15.424 14.8411ZM17.7411 10.744H21.2497V14.2525H17.7411V10.744ZM20.2326 13.2354V11.7748H18.7726V13.2348L20.2326 13.2354ZM13.2411 13.2354V11.7748H11.768V13.2348L13.2411 13.2354ZM10.7497 17.7485H14.2589V21.2571H10.7503L10.7497 17.7485ZM22.2411 18.2034V16.744H20.7811V18.204L22.2411 18.2034ZM18.2097 18.2034V16.744H16.7497V18.204L18.2097 18.2034ZM13.2411 20.2263V18.7657H11.768V20.2251L13.2411 20.2263ZM20.232 20.2263V18.7657H18.7589V20.2251L20.232 20.2263ZM20.8211 28.2885H24.0897C26.9017 28.2885 28.2949 26.8954 28.2949 24.1365V20.8685C28.2949 20.1583 27.9063 19.7703 27.2097 19.7703C26.5131 19.7703 26.1383 20.1588 26.1383 20.8685V24.0285C26.1383 25.4217 25.3749 26.1314 24.0623 26.1314H20.8211C20.1114 26.1314 19.7234 26.52 19.7234 27.2165C19.7234 27.8994 20.112 28.2885 20.8211 28.2885ZM7.91085 28.288H11.192C11.8886 28.288 12.2766 27.8994 12.2766 27.2165C12.2766 26.52 11.888 26.132 11.192 26.132H7.95085C6.61142 26.132 5.86171 25.4217 5.86171 24.0291V20.8685C5.86171 20.1583 5.47314 19.7703 4.79028 19.7703C4.08057 19.7703 3.70514 20.1588 3.70514 20.8685V24.136C3.70514 26.9085 5.12514 28.288 7.91085 28.288ZM18.2097 22.248V20.788H16.7497V22.248H18.2097ZM22.2411 22.248V20.788H20.7811V22.248H22.2411ZM22.4154 14.8417V10.1674C22.4154 9.84626 22.1606 9.57826 21.8257 9.57826H17.1657C16.8309 9.57826 16.5766 9.84569 16.5766 10.1674V14.8417C16.5766 15.1628 16.8309 15.4177 17.1651 15.4177H21.8263C22.1611 15.4177 22.4154 15.1628 22.4154 14.8417ZM10.7497 10.7428H14.2589V14.2514H10.7503L10.7497 10.7428ZM15.424 21.832V17.1577C15.424 16.8365 15.1697 16.5823 14.8349 16.5823H10.1743C9.83942 16.5823 9.58457 16.8365 9.58457 17.1577V21.832C9.58457 22.1537 9.83942 22.4211 10.1743 22.4211H14.8349C15.1697 22.4211 15.424 22.1537 15.424 21.832Z" fill="white"/>
</svg>
